<svg xmlns="http://www.w3.org/2000/svg" viewBox="0 0 180 140" fill="none">
  <g stroke="#0b0b0b" stroke-linecap="round" stroke-linejoin="round" stroke-width="5">
    <path d="M31 86c14-29 50-40 78-31 17 6 29 20 29 35 0 19-17 32-41 32-19 0-31-13-43-13-10 0-15 10-29 10-10 0-17-7-17-16 0-10 8-17 23-17z" fill="#fff"/>
    <path d="M72 76c-17-19-10-47 20-53 13-2 27 1 34 12-17-3-39 7-54 41z" fill="#fff"/>
    <path d="M124 54c10-9 24-11 34-1 8 7 9 20 1 30"/>
    <path d="M157 50l16-4M157 57l14 3"/>
    <path d="M30 88L10 79M30 96L8 95M32 103l-18 11"/>
    <path d="M83 122l-2 14M99 122l2 14M76 136h13M93 136h14"/>
  </g>
  <circle cx="143" cy="59" r="3.2" fill="#0b0b0b"/>
</svg>
